<mxfile host="Electron" agent="Mozilla/5.0 (Windows NT 10.0; Win64; x64) AppleWebKit/537.36 (KHTML, like Gecko) draw.io/26.0.16 Chrome/132.0.6834.196 Electron/34.2.0 Safari/537.36" version="26.0.16">
  <diagram name="第 1 页" id="A7rx9CSq9qLI3sRifqEV">
    <mxGraphModel dx="699" dy="506" grid="1" gridSize="10" guides="1" tooltips="1" connect="1" arrows="1" fold="1" page="1" pageScale="1" pageWidth="827" pageHeight="1169" math="0" shadow="0">
      <root>
        <mxCell id="0" />
        <mxCell id="1" parent="0" />
        <mxCell id="29SaeZLDsCMUhcdPmEra-1" value="" style="rounded=0;whiteSpace=wrap;html=1;dashed=1;" vertex="1" parent="1">
          <mxGeometry x="65" y="184" width="170" height="118" as="geometry" />
        </mxCell>
        <mxCell id="29SaeZLDsCMUhcdPmEra-2" value="" style="rounded=0;whiteSpace=wrap;html=1;dashed=1;" vertex="1" parent="1">
          <mxGeometry x="65" y="57" width="170" height="118" as="geometry" />
        </mxCell>
        <mxCell id="29SaeZLDsCMUhcdPmEra-3" value="" style="rounded=0;whiteSpace=wrap;html=1;" vertex="1" parent="1">
          <mxGeometry x="90" y="78" width="120" height="40" as="geometry" />
        </mxCell>
        <mxCell id="29SaeZLDsCMUhcdPmEra-4" value="内存" style="rounded=1;whiteSpace=wrap;html=1;" vertex="1" parent="1">
          <mxGeometry x="160" y="88" width="40" height="20" as="geometry" />
        </mxCell>
        <mxCell id="29SaeZLDsCMUhcdPmEra-5" value="" style="rounded=0;whiteSpace=wrap;html=1;" vertex="1" parent="1">
          <mxGeometry x="80" y="150" width="140" height="60" as="geometry" />
        </mxCell>
        <mxCell id="29SaeZLDsCMUhcdPmEra-6" value="应用" style="text;html=1;align=center;verticalAlign=middle;whiteSpace=wrap;rounded=0;" vertex="1" parent="1">
          <mxGeometry x="90" y="83" width="60" height="30" as="geometry" />
        </mxCell>
        <mxCell id="29SaeZLDsCMUhcdPmEra-7" value="内核" style="text;html=1;align=center;verticalAlign=middle;resizable=0;points=[];autosize=1;strokeColor=none;fillColor=none;" vertex="1" parent="1">
          <mxGeometry x="70" y="165" width="50" height="30" as="geometry" />
        </mxCell>
        <mxCell id="29SaeZLDsCMUhcdPmEra-8" value="" style="rounded=0;whiteSpace=wrap;html=1;" vertex="1" parent="1">
          <mxGeometry x="110" y="160" width="60" height="40" as="geometry" />
        </mxCell>
        <mxCell id="29SaeZLDsCMUhcdPmEra-9" value="TCP/IP" style="text;html=1;align=center;verticalAlign=middle;resizable=0;points=[];autosize=1;strokeColor=none;fillColor=none;" vertex="1" parent="1">
          <mxGeometry x="110" y="165" width="60" height="30" as="geometry" />
        </mxCell>
        <mxCell id="29SaeZLDsCMUhcdPmEra-11" value="" style="rounded=0;whiteSpace=wrap;html=1;" vertex="1" parent="1">
          <mxGeometry x="90" y="240" width="120" height="40" as="geometry" />
        </mxCell>
        <mxCell id="29SaeZLDsCMUhcdPmEra-12" value="内存" style="rounded=1;whiteSpace=wrap;html=1;" vertex="1" parent="1">
          <mxGeometry x="160" y="250" width="40" height="20" as="geometry" />
        </mxCell>
        <mxCell id="29SaeZLDsCMUhcdPmEra-13" value="应用" style="text;html=1;align=center;verticalAlign=middle;whiteSpace=wrap;rounded=0;" vertex="1" parent="1">
          <mxGeometry x="90" y="245" width="60" height="30" as="geometry" />
        </mxCell>
        <mxCell id="29SaeZLDsCMUhcdPmEra-14" value="" style="shape=flexArrow;endArrow=classic;startArrow=classic;html=1;rounded=0;endWidth=10.980392156862745;endSize=4.125490196078432;startWidth=10.980392156862745;startSize=4.125490196078432;exitX=0.633;exitY=-0.012;exitDx=0;exitDy=0;exitPerimeter=0;" edge="1" parent="1" source="29SaeZLDsCMUhcdPmEra-12">
          <mxGeometry width="100" height="100" relative="1" as="geometry">
            <mxPoint x="185.57" y="169" as="sourcePoint" />
            <mxPoint x="185.57" y="109" as="targetPoint" />
          </mxGeometry>
        </mxCell>
        <mxCell id="29SaeZLDsCMUhcdPmEra-16" value="主机 A" style="text;html=1;align=center;verticalAlign=middle;whiteSpace=wrap;rounded=0;" vertex="1" parent="1">
          <mxGeometry x="10" y="48" width="60" height="30" as="geometry" />
        </mxCell>
        <mxCell id="29SaeZLDsCMUhcdPmEra-17" value="主机 B" style="text;html=1;align=center;verticalAlign=middle;whiteSpace=wrap;rounded=0;" vertex="1" parent="1">
          <mxGeometry x="10" y="176" width="60" height="30" as="geometry" />
        </mxCell>
      </root>
    </mxGraphModel>
  </diagram>
</mxfile>
